<svg clip-rule="evenodd" fill-rule="evenodd" stroke-linejoin="round" stroke-miterlimit="2" viewBox="0 0 560 400" xmlns="http://www.w3.org/2000/svg" xmlns:xlink="http://www.w3.org/1999/xlink"><linearGradient id="a" gradientTransform="matrix(0 -25.5 25.5 0 10.2543 28)" gradientUnits="userSpaceOnUse" x1="0" x2="1" y1="0" y2="0"><stop offset="0" stop-color="#fff100"/><stop offset="1" stop-color="#f05a28"/></linearGradient><g transform="matrix(3.70376 0 0 3.70376 30 159.179)"><path d="m99.214 18.636h7.165v-1.918h-5.247v-12.216h-1.918zm15.738.001h1.606v-9.514h-1.645v1.213c-.822-.861-1.957-1.37-3.249-1.37-2.741 0-4.934 2.193-4.934 4.894 0 2.702 2.193 4.933 4.934 4.933 1.292 0 2.466-.548 3.288-1.37zm-3.288-7.792c1.683 0 3.014 1.371 3.014 3.015 0 1.684-1.331 3.015-3.014 3.015-1.684 0-3.015-1.331-3.015-3.015 0-1.644 1.37-3.015 3.015-3.015zm16.327 3.015c0 2.701-2.232 4.933-4.934 4.933-1.292 0-2.466-.548-3.289-1.37v1.213h-1.605v-13.351h1.88v4.816c.783-.705 1.84-1.135 3.014-1.135 2.702-.039 4.934 2.192 4.934 4.894zm-1.958 0c0-1.645-1.37-3.015-3.015-3.015-1.644 0-3.015 1.331-3.015 3.015 0 1.644 1.371 2.975 3.015 2.975 1.645 0 3.015-1.331 3.015-2.975zm7.634-2.663.822-1.409c-.783-.47-1.644-.862-2.741-.783-1.801 0-3.171 1.096-3.171 2.662 0 1.659 1.52 2.291 2.463 2.684l.043.018c1.331.509 1.918.861 1.918 1.527 0 .548-.43 1.135-1.37 1.135-.783 0-1.801-.431-2.349-.744l-.744 1.566c.822.509 1.997.979 3.171.979 1.919 0 3.289-1.37 3.289-2.936s-1.331-2.584-2.858-3.133c-.056-.02-.111-.041-.165-.061-.86-.32-1.519-.565-1.519-1.191 0-.588.627-.94 1.371-.94s1.448.391 1.84.626z"/><path d="m20.36 9.749c-.04-.352-.079-.783-.235-1.253-.118-.47-.314-.979-.588-1.527s-.626-1.096-1.057-1.644c-.156-.196-.352-.431-.587-.627.313-1.253-.392-2.31-.392-2.31-1.174-.078-1.957.353-2.231.588-.04 0-.079-.04-.157-.079-.196-.078-.391-.156-.626-.235-.235-.078-.431-.117-.666-.195-.235-.04-.47-.079-.666-.118h-.117c-.509-1.644-1.997-2.349-1.997-2.349-1.644 1.057-1.958 2.506-1.958 2.506v.078c-.078.039-.195.039-.274.078-.117.04-.235.079-.391.118-.118.039-.235.078-.392.156-.235.118-.509.235-.744.353-.234.117-.469.274-.704.431-.039 0-.039-.04-.039-.04-2.31-.861-4.346.196-4.346.196-.196 2.428.9 3.994 1.135 4.268-.039.156-.117.313-.157.47-.156.548-.313 1.135-.391 1.722 0 .079-.039.157-.039.235-2.115 1.057-2.741 3.211-2.741 3.211 1.762 2.036 3.837 2.153 3.837 2.153.274.47.548.901.901 1.331.156.157.313.353.43.509-.626 1.841.078 3.368.078 3.368 1.958.078 3.25-.862 3.524-1.097.196.079.392.118.588.196.587.157 1.213.235 1.84.274h.744c.939 1.331 2.545 1.527 2.545 1.527 1.174-1.214 1.213-2.427 1.213-2.701v-.079c.235-.156.47-.352.705-.548.47-.431.861-.9 1.214-1.409.039-.04.078-.079.078-.157 1.331.078 2.232-.822 2.232-.822-.235-1.371-1.018-2.036-1.175-2.154h-.039v-1.644c-.039-.157-.039-.313-.078-.431-.157-.587-.353-1.135-.666-1.644s-.665-.94-1.096-1.331c-.431-.392-.901-.666-1.41-.901s-1.018-.352-1.566-.431c-.274-.039-.509-.039-.783-.039h-.391c-.118 0-.274.039-.392.039-.509.079-1.018.275-1.449.549-.43.274-.822.587-1.135.939-.313.353-.548.783-.705 1.214-.156.431-.235.861-.274 1.292v.627c.039.195.079.43.118.626.117.391.313.744.509 1.057.235.313.509.548.783.744s.587.352.9.431c.314.078.588.117.901.117h.509c.039 0 .078 0 .117-.039.078 0 .118-.039.196-.039.118-.039.235-.079.352-.157.118-.039.196-.117.314-.196.039 0 .039-.039.078-.078.117-.078.117-.235.039-.313s-.196-.118-.274-.039c-.039 0-.039.039-.078.039-.079.039-.157.078-.274.117-.079.04-.196.04-.275.079h-.626c-.235-.039-.431-.079-.665-.196-.235-.078-.431-.235-.627-.392-.196-.156-.352-.391-.47-.587-.117-.196-.235-.47-.274-.744-.039-.117-.039-.274-.039-.391v-.196c0-.078 0-.157.039-.235.118-.587.392-1.136.861-1.605.118-.118.235-.196.353-.314.117-.078.274-.156.391-.234.157-.079.314-.118.431-.157.157-.039.313-.078.47-.078h.47c.156 0 .352.039.509.078.352.078.665.196.979.391.626.353 1.135.901 1.487 1.527.157.314.275.666.353 1.018 0 .079.039.196.039.275v.626c0 .117 0 .196-.039.313 0 .078-.039.196-.039.274 0 .079-.04.196-.079.274-.039.196-.117.392-.195.548-.157.353-.353.705-.588 1.058-.47.626-1.096 1.174-1.84 1.487-.352.157-.744.274-1.135.353-.196.039-.392.039-.588.078h-.274-.313c-.431-.039-.861-.117-1.253-.235-.391-.117-.822-.274-1.174-.47-.744-.391-1.41-.939-1.958-1.605-.274-.313-.509-.666-.666-1.057-.195-.392-.352-.783-.47-1.175-.117-.391-.195-.822-.195-1.213v-.744c0-.196.039-.431.039-.627.039-.196.078-.43.117-.626s.079-.431.157-.627c.117-.391.274-.783.431-1.174.352-.744.783-1.41 1.331-1.919.117-.117.274-.274.431-.391.156-.118.313-.235.469-.314.157-.117.314-.195.47-.274.078-.039.157-.078.235-.117.039 0 .078-.039.118-.039.039 0 .078-.039.117-.039.157-.079.352-.118.509-.196.039 0 .078-.039.118-.039.039 0 .078-.039.117-.039.078-.04.196-.04.274-.079.039 0 .078-.039.157-.039.039 0 .078 0 .156-.039.039 0 .078 0 .157-.039h.156c.04 0 .079 0 .157-.039.039 0 .118 0 .157-.039h.665s.039 0 0 0h.705c.352 0 .705.039 1.057.117.666.117 1.292.352 1.88.626.587.274 1.096.627 1.526 1.018.04.04.118.118.157.157s.118.078.157.157c.039.078.117.078.156.156.039.079.118.118.157.157.196.196.352.391.509.626.313.392.587.822.783 1.214 0 .039.039.039.039.078s.039.039.039.079c.039.039.039.078.079.156.039.039.039.079.078.157.039.039.039.078.078.156.079.196.157.353.196.509.078.275.157.509.196.705.039.078.117.157.195.118.079 0 .157-.079.157-.157.157-.47.157-.744.118-1.018z" fill="url(#a)" fill-rule="nonzero"/><path d="m39.429 11.903c-.157 3.837-3.172 6.851-6.97 6.851-3.993 0-6.93-3.21-6.93-7.125 0-3.916 3.211-7.165 7.126-7.165 1.762 0 3.485.744 4.973 2.114l-1.136 1.409c-1.135-.978-2.466-1.644-3.798-1.644-2.858 0-5.207 2.349-5.207 5.247 0 2.936 2.232 5.207 5.051 5.207 2.545 0 4.541-1.84 4.933-4.268h-5.756v-1.683h7.792zm6.656-.94h-1.057c-1.175 0-2.114.94-2.114 2.114v5.56h-1.88v-9.475h1.566v.783c.509-.509 1.332-.783 2.232-.783h2.036zm10.335 7.674h-1.605v-1.214c-1.253 1.214-3.21 1.801-5.207.939-1.488-.665-2.584-1.996-2.858-3.602-.588-3.014 1.762-5.755 4.776-5.755 1.253 0 2.428.509 3.25 1.331v-1.214h1.644zm-1.957-4.033c.431-1.919-1.018-3.681-2.897-3.681-1.645 0-2.976 1.332-2.976 2.976 0 1.84 1.605 3.289 3.524 2.937 1.135-.196 2.075-1.097 2.349-2.232zm5.756-5.991v.549h3.015v1.683h-3.015v7.831h-1.88v-9.984c0-2.075 1.488-3.328 3.368-3.328h2.27l-.743 1.801h-1.527c-.823 0-1.488.626-1.488 1.448zm13.077 10.024h-1.605v-1.214c-1.253 1.214-3.211 1.801-5.208.939-1.488-.665-2.584-1.996-2.858-3.602-.587-3.014 1.801-5.755 4.816-5.755 1.253 0 2.427.509 3.25 1.331v-1.214h1.644zm-1.919-4.033c.431-1.919-1.018-3.681-2.897-3.681-1.644 0-2.976 1.332-2.976 2.976 0 1.84 1.606 3.289 3.524 2.937 1.136-.196 2.075-1.097 2.349-2.232zm12.06-1.566v5.598h-1.88v-5.598c0-1.175-.979-2.115-2.114-2.115-1.214 0-2.153.94-2.153 2.115v5.598h-1.88v-9.475h1.566v.823c.666-.627 1.606-.979 2.545-.979 2.193 0 3.916 1.801 3.916 4.033zm11.157 5.599h-1.605v-1.214c-1.253 1.214-3.211 1.801-5.208.939-1.487-.665-2.584-1.996-2.858-3.602-.587-3.014 1.801-5.755 4.816-5.755 1.253 0 2.428.509 3.25 1.331v-1.214h1.644zm-1.918-4.033c.43-1.919-1.018-3.681-2.898-3.681-1.644 0-2.975 1.332-2.975 2.976 0 1.84 1.605 3.289 3.523 2.937 1.097-.196 2.076-1.097 2.35-2.232z"/></g><template xmlns="" id="transover-popup-template">
  <style>
    .pos_translation {
      padding-bottom: 3px;
    }

    strong {
      font-weight: bold;
    }

    .rtl {
      direction: rtl;
    }

    main {
      color: #333;
      max-width: 800px;
      font-family: Arial, sans-serif;
      font-size: 14px;
      font-weight: 300;
      letter-spacing: initial;

      background: #fcf7d9;
      text-align: left;
      border-style: solid;
      border-width: 1px;
      border-color: #ccc;
      box-shadow: rgba(0,0,0,0.2) 0px 2px 5px;
      border-radius: 5px;
      padding: 6px 8px 3px 8px;
      position: fixed;
      z-index: 2147483647;
      top: -1500px;
      left: 0;
      box-sizing: content-box;
      -webkit-font-smoothing: antialiased;
      font-smoothing: antialiased;
      text-rendering: optimizeLegibility;

      /* To fix the following issue:
      1. Have translate on hover enabled (opposed to translate on click).
      2. Wisit a website that has a dropdown menu that opens on hover.
      3. Open the menu.
      4. Hover over a word within that menu.
      5. Incidentally move the cursor over the TransOver popup.
      The hover menu gets closed.
      */
      pointer-events: none;
    }

    .pos_translation {
      font-size: 1em;
      line-height: 1.3em;
    }

    .red {
      color: red;
    }

    .from_lang {
      color: grey;
      font-size: 0.8em;
      line-height: 1.2em;
      margin-top: 2px;
      margin-bottom: 3px;
    }
  </style>

  <main translate="no"/>
</template></svg>